# xmcd CD database file
#
# Track frame offsets:
#	150
#	14700
#	30600
#	46200
#	63750
#	76650
#	93600
#	106500
#	120375
#	134175
#	146325
#	166350
#	183675
#	198825
#	215025
#	225450
#	246525
#	258525
#	272175
#	283875
#
# Disc length: 4050 seconds
#
# Revision: 8
# Processed by: cddbd v1.5.2PL0 Copyright (c) Steve Scherf et al.
# Submitted via: CDex 1.81
#
DISCID=280fd014
DTITLE=Chicken Shack - The Very Best Of Chicken Shack
DYEAR=1990
DGENRE=Blues
TTITLE0=I'd Rather Go Blind
TTITLE1=When The Train Comes Back
TTITLE2=A Woman Is The Blues
TTITLE3=I Wanna See My Baby
TTITLE4=Maudie
TTITLE5=Mean Old World
TTITLE6=Webbed Feet
TTITLE7=Remington Ride
TTITLE8=San-Ho-Zay
TTITLE9=Tears In The Wind
TTITLE10=The Letter
TTITLE11=Get Like You Used To Be
TTITLE12=Pocket
TTITLE13=You Ain't No Good
TTITLE14=Andalucian Blues
TTITLE15=Fishing In Your River
TTITLE16=Sad Clown
TTITLE17=Lonesome Whistle Blues
TTITLE18=Baby's Got My Crying
TTITLE19=The Way It Is
EXTD=YEAR: 1990
EXTT0=
EXTT1=
EXTT2=
EXTT3=
EXTT4=
EXTT5=
EXTT6=
EXTT7=
EXTT8=
EXTT9=
EXTT10=
EXTT11=
EXTT12=
EXTT13=
EXTT14=
EXTT15=
EXTT16=
EXTT17=
EXTT18=
EXTT19=
PLAYORDER=
